<svg xmlns="http://www.w3.org/2000/svg" viewBox="0 0 512 512">
  <path d="M256 76c-99.4 0-180 78.7-180 175.8 0 30.7 8.2 59.6 22.6 84.7L76 436l105.1-27.8c23.8 12.8 51.2 20.1 79.9 20.1 99.4 0 180-78.7 180-175.8S355.4 76 256 76zm0 316.9c-26.2 0-51.1-7-72.6-19.2l-5.9-3.3-62.2 16.4 16.7-58.8-3.8-6c-14.3-22.7-22.4-49.3-22.4-77.2 0-78.2 66.1-141.7 147.9-141.7S404 166.6 404 244.8 337.9 392.9 256 392.9z"></path>
  <path d="M349.8 299.7c-4.3-2.1-25.3-12.2-29.2-13.6-3.9-1.4-6.7-2.1-9.6 2.1-2.9 4.1-11 13.6-13.5 16.4-2.5 2.7-5 3.1-9.3 1-4.3-2.1-18.2-6.5-34.6-20.8-12.8-11.1-21.5-24.8-24-29-2.5-4.1-.3-6.3 1.9-8.4 2-1.9 4.3-4.9 6.4-7.4 2.1-2.4 2.9-4.1 4.3-6.9 1.4-2.7.7-5.1-.4-7.2-1.1-2.1-9.6-22.7-13.2-31.1-3.5-8.4-7.1-7.2-9.6-7.3-2.5-.1-5.3-.2-8.2-.2s-7.5 1-11.4 5.1c-3.9 4.1-15 14.5-15 35.3 0 20.8 15.4 40.9 17.6 43.7 2.1 2.7 30.3 46 74.4 62.7 44.1 16.7 44.1 11.1 52 10.4 7.9-.7 25.3-10.1 28.8-19.8 3.5-9.7 3.5-18 2.5-19.8-1.1-1.7-3.9-2.7-8.2-4.8z"></path>
</svg>
